<svg viewBox="0 0 1086 1086" xmlns="http://www.w3.org/2000/svg">
  <rect width="1086" height="1086" rx="239" ry="239" fill="#000000"/>
  <g transform="translate(0.000000,1086.000000) scale(0.100000,-0.100000)" fill="#ffffff" stroke="none">
<path d="M8762 10102 c-309 -343 -604 -678 -927 -1057 -690 -808 -1360 -1559
-1700 -1904 -422 -428 -755 -663 -1052 -741 -352 -92 -827 -12 -1478 248 -204
81 -335 140 -940 422 -724 338 -1089 497 -1116 488 -20 -7 192 -147 902 -596
1234 -779 1678 -1083 1853 -1272 177 -192 245 -385 216 -611 -52 -399 -399
-1043 -1395 -2589 -83 -129 -169 -263 -191 -298 -49 -78 -281 -431 -521 -794
-101 -153 -183 -280 -183 -284 0 -8 22 20 205 261 66 87 163 213 215 281 52
67 190 247 305 399 968 1277 1583 2036 1929 2380 264 262 438 367 657 395 322
40 858 -158 2049 -758 1165 -587 1443 -722 1487 -722 62 0 -520 471 -1032 836
-509 363 -864 596 -1390 914 -349 211 -493 308 -582 396 -186 182 -176 344 45
754 190 353 635 1021 1282 1925 417 583 613 855 709 985 122 166 610 844 660
918 46 69 43 80 -7 24z M4685 7961 c-3 -60 -12 -116 -18 -124 -7 -8 -75 -29
-152 -47 -178 -42 -358 -99 -508 -161 -65 -28 -126 -47 -135 -45 -9 3 -51 44
-92 90 -41 46 -76 83 -77 82 -1 -1 11 -44 27 -96 46 -144 52 -131 -107 -237
-163 -107 -299 -220 -407 -334 l-78 -82 -74 31 -75 31 40 -48 c52 -62 60 -68
132 -102 l61 -29 101 106 c56 58 147 143 203 188 112 88 294 206 319 206 9 0
44 -26 77 -57 48 -46 59 -53 53 -33 -15 46 -35 125 -35 136 0 12 85 53 213
103 138 55 394 124 529 144 43 6 54 -1 113 -78 21 -27 42 -54 47 -60 6 -6 8
25 6 75 l-3 85 80 8 c115 12 502 1 620 -17 264 -40 429 -86 757 -212 l48 -18
37 44 c21 24 38 48 38 54 0 14 -205 97 -375 151 -215 70 -194 49 -200 190 l-5
120 -53 -109 -52 -109 -53 6 c-28 4 -108 13 -177 22 -90 11 -206 15 -417 14
-160 -1 -296 2 -301 5 -5 3 -29 53 -52 111 -23 58 -43 105 -45 105 -1 0 -6
-49 -10 -109z M6851 7262 c-17 -27 -31 -53 -31 -58 0 -5 17 -20 37 -34 106
-71 292 -232 408 -351 128 -132 275 -313 275 -338 0 -7 -20 -44 -45 -82 -25
-38 -45 -72 -45 -74 0 -3 26 8 58 24 101 51 94 53 149 -41 111 -190 212 -445
253 -638 30 -142 30 -139 -45 -185 -35 -22 -64 -43 -65 -47 0 -5 20 -8 44 -8
24 0 58 -3 76 -7 l33 -6 -6 -186 c-6 -185 -23 -304 -63 -423 -14 -43 -19 -48
-45 -48 -16 0 -46 7 -66 15 -19 8 -37 15 -40 15 -2 0 19 -27 47 -61 27 -33 50
-65 50 -70 0 -6 -16 -47 -36 -92 l-35 -80 28 -23 c15 -12 40 -30 55 -39 l27
-16 40 80 40 79 58 -13 c32 -8 74 -19 93 -25 55 -16 56 -12 9 27 -24 21 -61
54 -82 73 l-39 35 26 90 c54 194 67 281 73 492 l6 202 79 31 c44 16 91 33 104
36 50 13 30 21 -79 33 -62 7 -115 15 -119 19 -4 4 -18 59 -33 122 -49 222
-154 480 -284 704 -58 101 -60 91 24 184 26 28 45 52 43 52 -3 0 -38 -11 -78
-25 -40 -14 -81 -25 -90 -25 -9 0 -57 51 -107 113 -197 243 -376 410 -639 595
l-32 22 -31 -48z M2862 6543 c-36 -80 -72 -183 -98 -283 -14 -52 -29 -99 -34
-104 -4 -4 -52 -7 -106 -4 -56 2 -91 0 -83 -4 8 -5 50 -30 94 -56 l80 -47 -3
-130 c-12 -427 99 -803 368 -1248 l22 -38 -56 -56 c-31 -31 -54 -58 -52 -60 2
-2 34 3 70 12 37 8 75 15 84 15 10 0 61 -53 116 -120 159 -192 374 -389 566
-520 l59 -40 27 45 c14 25 27 52 28 59 0 7 -55 54 -122 105 -209 158 -532 492
-532 550 0 10 21 42 46 70 26 29 45 53 43 55 -2 2 -31 -5 -64 -15 -96 -30 -94
-31 -163 84 -201 334 -307 696 -300 1022 l3 130 76 0 76 -1 -69 54 c-37 29
-68 61 -68 70 0 48 62 267 104 371 14 36 26 66 26 67 0 3 -106 64 -112 64 -3
0 -14 -21 -26 -47z M7379 4013 c-69 -59 -169 -133 -180 -133 -4 0 -33 20 -64
45 -30 25 -55 42 -55 38 0 -5 7 -33 15 -63 8 -30 15 -62 15 -71 0 -20 -159
-111 -300 -172 -148 -64 -446 -157 -503 -157 -8 0 -41 31 -73 70 -32 38 -59
69 -60 67 -1 -1 1 -35 5 -75 4 -47 3 -76 -4 -81 -37 -31 -445 -49 -690 -32
-369 27 -685 102 -1017 243 l-98 41 -39 -44 c-22 -24 -40 -48 -40 -54 -1 -11
139 -74 294 -133 l100 -38 -3 -119 c-1 -65 1 -115 5 -111 4 3 28 46 53 94 54
104 55 104 196 68 123 -32 294 -61 444 -76 165 -16 528 -14 699 4 79 9 148 13
153 10 5 -3 31 -49 58 -102 l49 -97 1 90 c1 144 -8 135 165 181 201 53 481
169 635 263 19 11 41 21 48 21 6 0 46 -29 87 -65 41 -36 76 -65 78 -65 2 0
-11 39 -29 88 -18 48 -33 94 -34 103 0 8 21 31 48 50 71 51 223 189 217 198
-4 7 -109 61 -118 61 -2 0 -28 -21 -58 -47z"/>
</g>
</svg>
